<svg id="svg" version="1.1" xmlns="http://www.w3.org/2000/svg" xmlns:xlink="http://www.w3.org/1999/xlink" width="400" height="394.7712418300653" viewBox="0, 0, 400,394.7712418300653"><g id="svgg"><path id="path0" d="M48.280 0.758 C 48.452 1.417,48.312 1.488,47.202 1.308 C 45.992 1.112,45.925 1.166,45.891 2.368 C 45.847 3.930,45.786 3.991,44.248 4.035 C 43.104 4.067,43.015 4.166,43.122 5.293 C 43.228 6.412,43.129 6.526,41.955 6.639 C 40.838 6.747,40.671 6.908,40.671 7.880 C 40.671 9.108,40.022 9.543,38.705 9.199 C 38.113 9.044,37.872 9.144,37.924 9.522 C 38.190 11.420,37.925 11.846,36.482 11.846 C 35.107 11.846,35.062 11.891,35.207 13.129 C 35.347 14.327,35.277 14.413,34.164 14.413 C 33.107 14.413,32.957 14.559,32.848 15.696 C 32.725 16.965,32.227 17.239,30.475 17.002 C 30.186 16.963,29.985 17.251,30.026 17.646 C 30.210 19.412,30.020 19.743,28.825 19.743 C 27.732 19.743,27.641 19.851,27.641 21.143 C 27.641 22.517,27.616 22.539,26.320 22.295 C 25.051 22.057,24.997 22.097,24.963 23.305 C 24.919 24.857,24.857 24.919,23.321 24.962 C 22.176 24.995,22.087 25.094,22.194 26.220 C 22.300 27.340,22.201 27.454,21.027 27.567 C 19.898 27.676,19.743 27.831,19.743 28.850 C 19.743 30.018,19.403 30.209,17.646 30.026 C 17.251 29.985,16.963 30.186,17.002 30.475 C 17.239 32.227,16.965 32.725,15.696 32.848 C 14.561 32.957,14.413 33.108,14.413 34.156 C 14.413 35.209,14.281 35.341,13.228 35.341 C 12.180 35.341,12.029 35.489,11.920 36.624 C 11.797 37.893,11.299 38.167,9.547 37.930 C 9.258 37.891,9.057 38.179,9.099 38.574 C 9.281 40.331,9.090 40.671,7.922 40.671 C 6.903 40.671,6.748 40.826,6.639 41.955 C 6.526 43.129,6.412 43.228,5.293 43.122 C 4.166 43.015,4.067 43.104,4.035 44.248 C 3.991 45.786,3.930 45.847,2.368 45.891 C 1.157 45.926,1.111 45.985,1.315 47.248 C 1.497 48.365,1.412 48.569,0.765 48.569 C 0.010 48.569,0.000 50.472,0.000 200.197 C 0.000 346.771,0.024 351.826,0.721 351.826 C 1.286 351.826,1.408 352.065,1.282 352.924 C 1.135 353.920,1.241 354.032,2.415 354.121 C 3.998 354.242,3.991 354.236,4.032 355.676 C 4.061 356.690,4.219 356.847,5.232 356.876 C 6.669 356.917,6.667 356.914,6.785 358.461 C 6.868 359.556,7.027 359.724,7.981 359.724 C 9.060 359.724,9.245 360.003,9.101 361.411 C 9.062 361.795,9.174 362.085,9.352 362.055 C 11.191 361.738,11.846 362.118,11.846 363.500 C 11.846 364.603,11.995 364.891,12.537 364.836 C 13.909 364.697,14.215 364.873,14.215 365.802 C 14.215 366.765,14.865 367.226,16.222 367.226 C 16.935 367.226,17.203 367.999,17.009 369.497 C 16.968 369.811,17.454 369.990,18.344 369.990 C 19.718 369.990,20.098 370.649,19.781 372.484 C 19.751 372.662,20.307 372.751,21.018 372.682 C 22.261 372.562,22.305 372.606,22.185 373.849 C 22.116 374.560,22.205 375.116,22.382 375.085 C 24.218 374.769,24.877 375.149,24.877 376.523 C 24.877 377.413,25.056 377.899,25.370 377.858 C 26.868 377.664,27.641 377.931,27.641 378.645 C 27.641 379.987,28.099 380.652,29.023 380.652 C 29.961 380.652,30.522 381.467,30.185 382.344 C 30.055 382.682,30.414 382.884,31.263 382.948 C 32.813 383.066,32.728 382.981,32.847 384.533 C 32.913 385.402,33.136 385.788,33.550 385.750 C 34.865 385.628,35.143 385.827,35.143 386.885 C 35.143 387.840,35.311 387.999,36.406 388.082 C 37.953 388.200,37.950 388.197,37.991 389.634 C 38.020 390.648,38.177 390.806,39.191 390.834 C 40.631 390.875,40.625 390.869,40.745 392.452 C 40.835 393.626,40.947 393.731,41.942 393.585 C 42.801 393.459,43.040 393.581,43.040 394.145 C 43.040 394.843,48.264 394.867,200.000 394.867 C 351.736 394.867,356.960 394.843,356.960 394.145 C 356.960 393.581,357.199 393.459,358.058 393.585 C 359.053 393.731,359.165 393.626,359.255 392.452 C 359.375 390.869,359.369 390.875,360.809 390.834 C 361.823 390.806,361.980 390.648,362.009 389.634 C 362.050 388.197,362.047 388.200,363.594 388.082 C 364.689 387.999,364.857 387.840,364.857 386.885 C 364.857 385.827,365.135 385.628,366.450 385.750 C 366.864 385.788,367.087 385.402,367.153 384.533 C 367.272 382.981,367.187 383.066,368.737 382.948 C 369.586 382.884,369.945 382.682,369.815 382.344 C 369.478 381.467,370.039 380.652,370.977 380.652 C 371.901 380.652,372.359 379.987,372.359 378.645 C 372.359 377.931,373.132 377.664,374.630 377.858 C 374.944 377.899,375.123 377.413,375.123 376.523 C 375.123 375.149,375.782 374.769,377.618 375.085 C 377.795 375.116,377.884 374.560,377.815 373.849 C 377.695 372.606,377.739 372.562,378.982 372.682 C 379.693 372.751,380.249 372.662,380.219 372.484 C 379.902 370.649,380.282 369.990,381.656 369.990 C 382.546 369.990,383.032 369.811,382.991 369.497 C 382.797 367.999,383.065 367.226,383.778 367.226 C 385.135 367.226,385.785 366.765,385.785 365.802 C 385.785 364.873,386.091 364.697,387.463 364.836 C 388.005 364.891,388.154 364.603,388.154 363.500 C 388.154 362.118,388.809 361.738,390.648 362.055 C 390.826 362.085,390.938 361.795,390.899 361.411 C 390.755 360.003,390.940 359.724,392.019 359.724 C 392.973 359.724,393.132 359.556,393.215 358.461 C 393.333 356.914,393.331 356.917,394.768 356.876 C 395.781 356.847,395.939 356.690,395.968 355.676 C 396.009 354.236,396.002 354.242,397.585 354.121 C 398.759 354.032,398.865 353.920,398.718 352.924 C 398.592 352.065,398.714 351.826,399.279 351.826 C 399.976 351.826,400.000 346.771,400.000 200.197 C 400.000 50.472,399.990 48.569,399.235 48.569 C 398.588 48.569,398.503 48.365,398.685 47.248 C 398.889 45.985,398.843 45.926,397.632 45.891 C 396.070 45.847,396.009 45.786,395.965 44.248 C 395.933 43.104,395.834 43.015,394.707 43.122 C 393.588 43.228,393.474 43.129,393.361 41.955 C 393.252 40.826,393.097 40.671,392.078 40.671 C 390.910 40.671,390.719 40.331,390.901 38.574 C 390.943 38.179,390.742 37.891,390.453 37.930 C 388.701 38.167,388.203 37.893,388.080 36.624 C 387.971 35.489,387.820 35.341,386.772 35.341 C 385.719 35.341,385.587 35.209,385.587 34.156 C 385.587 33.108,385.439 32.957,384.304 32.848 C 383.035 32.725,382.761 32.227,382.998 30.475 C 383.037 30.186,382.749 29.985,382.354 30.026 C 380.597 30.209,380.257 30.018,380.257 28.850 C 380.257 27.831,380.102 27.676,378.973 27.567 C 377.799 27.454,377.700 27.340,377.806 26.220 C 377.913 25.094,377.824 24.995,376.679 24.962 C 375.143 24.919,375.081 24.857,375.037 23.305 C 375.003 22.097,374.949 22.057,373.680 22.295 C 372.384 22.539,372.359 22.517,372.359 21.143 C 372.359 19.851,372.268 19.743,371.175 19.743 C 369.980 19.743,369.790 19.412,369.974 17.646 C 370.015 17.251,369.814 16.963,369.525 17.002 C 367.773 17.239,367.275 16.965,367.152 15.696 C 367.043 14.559,366.893 14.413,365.836 14.413 C 364.723 14.413,364.653 14.327,364.793 13.129 C 364.938 11.891,364.893 11.846,363.518 11.846 C 362.075 11.846,361.810 11.420,362.076 9.522 C 362.128 9.144,361.887 9.044,361.295 9.199 C 359.978 9.543,359.329 9.108,359.329 7.880 C 359.329 6.908,359.162 6.747,358.045 6.639 C 356.871 6.526,356.772 6.412,356.878 5.293 C 356.985 4.166,356.896 4.067,355.752 4.035 C 354.214 3.991,354.153 3.930,354.109 2.368 C 354.075 1.166,354.008 1.112,352.798 1.308 C 351.688 1.488,351.548 1.417,351.720 0.758 C 351.915 0.012,349.572 0.000,200.000 0.000 C 50.428 0.000,48.085 0.012,48.280 0.758 M350.563 49.437 C 351.383 50.258,351.237 347.225,350.416 348.047 C 349.465 348.998,50.535 348.998,49.584 348.047 C 48.763 347.225,48.617 50.258,49.437 49.437 C 50.128 48.747,349.872 48.747,350.563 49.437 " stroke="none" fill="#cc4cec" fill-rule="evenodd"></path><path id="path1" d="M50.591 50.683 C 50.264 51.077,50.173 90.092,50.246 199.054 L 50.346 346.890 200.000 346.890 L 349.654 346.890 349.754 199.054 C 349.827 90.092,349.736 51.077,349.409 50.683 C 348.746 49.883,51.254 49.883,50.591 50.683 " stroke="none" fill="#9c1cbc" fill-rule="evenodd"></path><path id="path2" d="M49.437 49.437 C 48.617 50.258,48.763 347.225,49.584 348.047 C 50.535 348.998,349.465 348.998,350.416 348.047 C 351.237 347.225,351.383 50.258,350.563 49.437 C 349.872 48.747,50.128 48.747,49.437 49.437 M350.168 49.832 C 351.017 50.682,350.839 346.610,349.988 347.550 C 349.020 348.620,51.262 348.689,50.080 347.619 C 49.169 346.794,48.923 50.742,49.832 49.832 C 50.523 49.142,349.477 49.142,350.168 49.832 " stroke="none" fill="#c450d4" fill-rule="evenodd"></path><path id="path3" d="M49.832 49.832 C 48.923 50.742,49.169 346.794,50.080 347.619 C 51.262 348.689,349.020 348.620,349.988 347.550 C 350.839 346.610,351.017 50.682,350.168 49.832 C 349.477 49.142,50.523 49.142,49.832 49.832 M349.409 50.683 C 349.736 51.077,349.827 90.092,349.754 199.054 L 349.654 346.890 200.000 346.890 L 50.346 346.890 50.246 199.054 C 50.173 90.092,50.264 51.077,50.591 50.683 C 51.254 49.883,348.746 49.883,349.409 50.683 " stroke="none" fill="#a838d4" fill-rule="evenodd"></path><path id="path4" d="" stroke="none" fill="#a81cd8" fill-rule="evenodd"></path></g></svg>